<svg xmlns="http://www.w3.org/2000/svg" viewBox="0 0 76.39 115.14"><title>Icon 2</title><g id="Camada_2" data-name="Camada 2"><g id="PINU_S_BURGUER_RETA" data-name="PINU&apos;S BURGUER RETA"><path d="M1.94,52A1.36,1.36,0,0,1,.67,50.1c2.68-7,6.59-11.88,13-14.54C19.75,33,30,31.13,38.19,31.11S56.56,33,62.75,35.56C69.23,38.27,74.2,43.11,76,50.26A1.36,1.36,0,0,1,74.7,52Z"/><path d="M2.24,100.1a1.38,1.38,0,0,0-1.18,2.06,20.28,20.28,0,0,0,12.58,9.77c6.11,1.84,16.32,3.2,24.55,3.21a96.75,96.75,0,0,0,24.56-3.21c6.2-1.87,11-5.15,13-10a1.37,1.37,0,0,0-1.27-1.88H30.85a2.75,2.75,0,0,0-1.54.48L23,104.92a2,2,0,0,1-2.31,0l-6.51-4.46A2.06,2.06,0,0,0,13,100.1Z"/><path d="M53.2,2.11V15.19a18.89,18.89,0,0,1-7.49,1.91,22.65,22.65,0,0,1-6.34-.87.92.92,0,0,0-1.17.89V23.3a.93.93,0,0,1-.93.92H35a.92.92,0,0,1-.93-.92l0-20.55V.93A.92.92,0,0,1,35.07,0h2c1.55.09,1.07,1.33,1.38,1.69,1.08,1.25,3.35,1.49,7.11,1.49A24,24,0,0,0,53.2,2.11Z"/><path d="M76.39,60.65V61a1.39,1.39,0,0,1-.69,1.19l-2.19,1.24a10.75,10.75,0,0,1-10.54,0,10.74,10.74,0,0,0-9.7-.43l-.06,0a10.78,10.78,0,0,1-9.7-.43,10.7,10.7,0,0,0-10.55,0,10.74,10.74,0,0,1-9.7.43l-.05,0a10.8,10.8,0,0,0-9.71.43A10.75,10.75,0,0,1,3,63.46L.69,62.17A1.36,1.36,0,0,1,0,61v-.33a1.36,1.36,0,0,1,1.36-1.36H75A1.36,1.36,0,0,1,76.39,60.65Z"/><path d="M76.39,71.22V81.46A1.37,1.37,0,0,1,75,82.83H1.36A1.36,1.36,0,0,1,0,81.46v-10a1.37,1.37,0,0,1,2-1.19l.72.41a10.75,10.75,0,0,0,10.54,0A10.78,10.78,0,0,1,23,70.2l.06,0a10.74,10.74,0,0,0,9.7-.43,10.75,10.75,0,0,1,10.54,0,10.78,10.78,0,0,0,9.7.43l.06,0a10.74,10.74,0,0,1,9.7.43,10.77,10.77,0,0,0,10.55,0l1-.59A1.36,1.36,0,0,1,76.39,71.22Z"/><path d="M75,93.93H30.63a2,2,0,0,0-1.14.35L23,98.63a2,2,0,0,1-2.27,0l-6.53-4.35A2,2,0,0,0,13,93.93H1.36A1.36,1.36,0,0,1,0,92.57V91.36A1.36,1.36,0,0,1,1.36,90H75a1.36,1.36,0,0,1,1.37,1.36v1.21A1.36,1.36,0,0,1,75,93.93Z"/></g></g></svg>