<svg xmlns="http://www.w3.org/2000/svg" viewBox="0 0 1885.56 398.84"><defs><style>.cls-1{fill:#fff;}</style></defs><title>Logo site</title><g id="Camada_2" data-name="Camada 2"><g id="PINU_S_p_site" data-name="PINU&apos;S  p/ site"><path class="cls-1" d="M160.94,49a1.37,1.37,0,0,1-1.28-1.85c2.68-7,6.6-11.88,13-14.54,6.1-2.54,16.32-4.43,24.55-4.45s18.37,1.87,24.55,4.45c6.49,2.71,11.46,7.55,13.28,14.7A1.36,1.36,0,0,1,233.69,49Z"/><path class="cls-1" d="M161.24,86.1a1.37,1.37,0,0,0-1.18,2.06,20.25,20.25,0,0,0,12.58,9.77c6.1,1.84,16.32,3.2,24.55,3.21s18.37-1.35,24.55-3.21,11-5.15,13-10a1.37,1.37,0,0,0-1.27-1.88H189.85a2.72,2.72,0,0,0-1.54.48L182,90.92a2,2,0,0,1-2.32,0l-6.5-4.46A2.07,2.07,0,0,0,172,86.1Z"/><path class="cls-1" d="M212.19,2.11V15.19a18.89,18.89,0,0,1-7.49,1.91,22.65,22.65,0,0,1-6.34-.87.92.92,0,0,0-1.17.89V23.3a.92.92,0,0,1-.92.92H194a.92.92,0,0,1-.92-.92l0-20.55V.93a.93.93,0,0,1,.93-.93h2c1.55.09,1.08,1.33,1.39,1.69,1.07,1.25,3.35,1.49,7.1,1.49A23.92,23.92,0,0,0,212.19,2.11Z"/><path class="cls-1" d="M235.38,54.65V55a1.37,1.37,0,0,1-.69,1.19l-2.18,1.24a10.77,10.77,0,0,1-10.55,0,10.74,10.74,0,0,0-9.7-.43l0,0a10.8,10.8,0,0,1-9.71-.43,10.69,10.69,0,0,0-10.54,0,10.74,10.74,0,0,1-9.7.43l-.06,0a10.78,10.78,0,0,0-9.7.43,10.75,10.75,0,0,1-10.54,0l-2.28-1.29A1.37,1.37,0,0,1,159,55v-.33a1.36,1.36,0,0,1,1.36-1.36H234A1.36,1.36,0,0,1,235.38,54.65Z"/><path class="cls-1" d="M235.38,62.22V72.46A1.36,1.36,0,0,1,234,73.83H160.36A1.36,1.36,0,0,1,159,72.46v-10a1.36,1.36,0,0,1,2-1.19l.72.41a10.75,10.75,0,0,0,10.54,0,10.78,10.78,0,0,1,9.7-.43l.06,0a10.74,10.74,0,0,0,9.7-.43,10.77,10.77,0,0,1,10.55,0,10.78,10.78,0,0,0,9.7.43l.06,0a10.74,10.74,0,0,1,9.7.43,10.75,10.75,0,0,0,10.54,0l1-.59A1.36,1.36,0,0,1,235.38,62.22Z"/><path class="cls-1" d="M234,81.93h-44.4a2,2,0,0,0-1.13.35L182,86.63a2,2,0,0,1-2.27,0l-6.54-4.35a2,2,0,0,0-1.13-.35H160.36A1.36,1.36,0,0,1,159,80.57V79.36A1.36,1.36,0,0,1,160.36,78H234a1.36,1.36,0,0,1,1.36,1.36v1.21A1.36,1.36,0,0,1,234,81.93Z"/><g id="Burguer"><path class="cls-1" d="M814.9,137.79c10.08-2.12,26-3.71,42.15-3.71,23.06,0,37.9,4,49,13,9.28,6.9,14.85,17.5,14.85,31.55,0,17.22-11.4,32.33-30.22,39.22v.53c17,4.24,36.84,18.29,36.84,44.8a48.13,48.13,0,0,1-15.11,35.78c-12.45,11.4-32.6,16.7-61.75,16.7a269.73,269.73,0,0,1-35.79-2.12ZM838,210.94H858.9c24.39,0,38.7-12.72,38.7-29.95,0-20.94-15.9-29.15-39.23-29.15-10.6,0-16.7.79-20.41,1.59Zm0,85.62c4.51.79,11.14,1.05,19.35,1.05,23.86,0,45.86-8.74,45.86-34.72,0-24.38-20.94-34.45-46.12-34.45H838Z"/><path class="cls-1" d="M978.73,135.4V241.16c0,40,17.76,57,41.61,57,26.51,0,43.47-17.49,43.47-57V135.4h23.33V239.57c0,54.86-28.89,77.39-67.59,77.39C983,317,955.4,296,955.4,240.63V135.4Z"/><path class="cls-1" d="M1124.27,137.79c11.66-2.39,28.36-3.71,44.26-3.71,24.65,0,40.55,4.5,51.68,14.57,9,8,14,20.15,14,33.93,0,23.59-14.84,39.23-33.66,45.59v.8c13.78,4.77,22,17.49,26.24,36,5.83,24.92,10.07,42.15,13.78,49h-23.85c-2.92-5-6.89-20.41-11.93-42.68-5.3-24.65-14.84-33.92-35.78-34.72h-21.74v77.4h-23Zm23,81.37h23.59c24.65,0,40.29-13.52,40.29-33.93,0-23.06-16.7-33.13-41.08-33.39-11.13,0-19.09,1.06-22.8,2.12Z"/><path class="cls-1" d="M1410.73,306.1a166.4,166.4,0,0,1-54.86,9.8c-27,0-49.3-6.89-66.8-23.59-15.37-14.84-24.91-38.69-24.91-66.52.26-53.28,36.84-92.24,96.74-92.24,20.68,0,36.85,4.5,44.53,8.21l-5.56,18.82c-9.55-4.24-21.47-7.68-39.5-7.68-43.47,0-71.83,27-71.83,71.83,0,45.32,27.3,72.09,68.92,72.09,15.11,0,25.44-2.12,30.74-4.77V238.77h-36.31V220.22h58.84Z"/><path class="cls-1" d="M1476.15,135.4V241.16c0,40,17.76,57,41.62,57,26.5,0,43.47-17.49,43.47-57V135.4h23.32V239.57c0,54.86-28.89,77.39-67.59,77.39-36.57,0-64.14-20.94-64.14-76.33V135.4Z"/><path class="cls-1" d="M1724.19,230.29h-69.44V294.7h77.39v19.35H1631.69V135.4h96.48v19.35h-73.42v56.46h69.44Z"/><path class="cls-1" d="M1769.2,137.79c11.66-2.39,28.36-3.71,44.26-3.71,24.65,0,40.56,4.5,51.69,14.57,9,8,14,20.15,14,33.93,0,23.59-14.85,39.23-33.66,45.59v.8c13.78,4.77,22,17.49,26.24,36,5.83,24.92,10.07,42.15,13.78,49H1861.7c-2.91-5-6.89-20.41-11.92-42.68-5.3-24.65-14.85-33.92-35.79-34.72h-21.73v77.4H1769.2Zm23.06,81.37h23.59c24.65,0,40.29-13.52,40.29-33.93,0-23.06-16.7-33.13-41.09-33.39-11.13,0-19.08,1.06-22.79,2.12Z"/></g><g id="Pinu_s" data-name="Pinu&apos;s"><polygon class="cls-1" points="423.05 190.73 423.05 262.74 331.11 262.74 328.46 257.92 303.71 212.93 303.71 262.74 253.3 262.74 253.3 190.73 354.51 190.73 373.67 225.57 373.67 190.73 423.05 190.73"/><polygon class="cls-1" points="332.8 266.86 423.05 266.86 423.05 321.38 362.68 321.38 332.8 266.86"/><path class="cls-1" d="M13.6,190.73H74.3v15.43s1.76,0,4.08,0h1.41a10.94,10.94,0,0,0,11-10.94h0v-4.49h60.7a56.58,56.58,0,0,1-56.58,56.58H74.3v15.43H13.6Z"/><path class="cls-1" d="M151.46,186.61H90.76s0-.59,0-3.1v-.66a11.62,11.62,0,0,0-11.58-11.67H74.3v15.43H13.6V171.18H3.32V130H94.88A56.58,56.58,0,0,1,151.46,186.61Z"/><path class="cls-1" d="M702.87,190.49a31.74,31.74,0,0,0,20.84,17.18c18.25,4.9,31.85,11.53,42.29,22.85,11.19,12.13,9.91,30.39,9.91,30.39H712.13s3-23.18-30.91-29.17c-39.9-6.93-42.13-41.25-42.13-41.25Z"/><path class="cls-1" d="M775.91,268.84c0,20.75-12,38.21-33,46.5-18.28,7.23-37.1,6.62-56.16,5a156.65,156.65,0,0,1-37.38-8.07c-8.23-2.79-8.26-3.06-8.26-3.06l0-44.27h46.27v.67A9.5,9.5,0,0,0,697,275h5.49a9.5,9.5,0,0,0,9.6-9.39V265h63.78S775.92,265.37,775.91,268.84Z"/><path class="cls-1" d="M639.08,182.58c0-20.76,12-38.22,33-46.51,18.28-7.22,37.09-6.62,56.16-5a157.65,157.65,0,0,1,37.37,8.07c5.95,2,7.62,2.73,8.08,3a.33.33,0,0,1,.18.29l0,43.75a.34.34,0,0,1-.34.33H727.9a.34.34,0,0,1-.34-.33h0a9.85,9.85,0,0,0-9.95-9.73h-4.8a9.84,9.84,0,0,0-9.94,9.73h0a.34.34,0,0,1-.35.33H639.43a.34.34,0,0,1-.35-.32Z"/><polygon class="cls-1" points="253.3 186.62 253.3 171.18 243.02 171.18 243.02 130.03 321.14 130.03 352.24 186.62 253.3 186.62"/><polygon class="cls-1" points="3.32 321.38 3.32 282.29 13.61 282.29 13.61 266.86 74.3 266.86 74.3 282.29 89.73 282.29 89.73 321.38 3.32 321.38"/><rect class="cls-1" x="167.92" y="190.73" width="58.64" height="72.01"/><polygon class="cls-1" points="236.84 130.03 236.84 171.18 226.56 171.18 226.56 186.62 167.92 186.62 167.92 171.18 157.63 171.18 157.63 130.03 236.84 130.03"/><polygon class="cls-1" points="157.63 321.38 157.63 282.29 167.92 282.29 167.92 266.86 226.56 266.86 226.56 282.29 236.84 282.29 236.84 321.38 157.63 321.38"/><polygon class="cls-1" points="243.02 321.38 243.02 282.29 253.3 282.29 253.3 266.86 303.71 266.86 303.71 282.29 314 282.29 314 321.38 243.02 321.38"/><polygon class="cls-1" points="363.38 130.03 363.38 171.18 373.67 171.18 373.67 186.62 423.05 186.62 423.05 171.18 433.34 171.18 433.34 130.03 363.38 130.03"/><path class="cls-1" d="M449.8,190.73h49.38v72H449.87c-.05-.92-.07-1.86-.07-2.8Z"/><polygon class="cls-1" points="509.46 130.03 509.46 171.18 499.18 171.18 499.18 186.62 449.8 186.62 449.8 171.18 439.51 171.18 439.51 130.03 509.46 130.03"/><path class="cls-1" d="M528,266.86h49.1A60.42,60.42,0,0,1,517,321.38H510.2a60.44,60.44,0,0,1-60.13-54.52h49.11v1a14.4,14.4,0,0,0,28.8,0Z"/><path class="cls-1" d="M528,190.73h49.38v69.21c0,.94,0,1.88-.07,2.8H528Z"/><polygon class="cls-1" points="587.65 130.03 587.65 171.18 577.36 171.18 577.36 186.62 527.98 186.62 527.98 171.18 517.69 171.18 517.69 130.03 587.65 130.03"/><polygon class="cls-1" points="627.62 186.62 602.93 186.62 600.88 130.03 629.68 130.03 627.62 186.62"/></g><rect class="cls-1" x="46.18" y="0.58" width="33.02" height="125.37" transform="translate(125.95 0.58) rotate(90)"/><path class="cls-1" d="M270.53,46.76v33H770.68v-33Zm127.05,28-7.94-4.17-7.95,4.17,1.52-8.84-6.43-6.27,8.88-1.29,4-8,4,8,8.88,1.29-6.43,6.27Zm225,0-7.94-4.17-8,4.17,1.52-8.84-6.43-6.27,8.89-1.29,4-8,4,8,8.88,1.29L621,65.92Z"/><path class="cls-1" d="M0,363.24v35.6H778.59v-35.6Zm188.05,28.38-7.94-4.18-8,4.18,1.52-8.85-6.43-6.26,8.89-1.3,4-8,4,8,8.88,1.3-6.43,6.26Zm209.53,0-7.94-4.18-7.95,4.18,1.52-8.85-6.43-6.26,8.88-1.3,4-8,4,8,8.88,1.3-6.43,6.26Zm225-.09-7.94-4.18-8,4.18,1.52-8.85-6.43-6.26,8.89-1.29,4-8.05,4,8.05,8.88,1.29L621,382.68Z"/></g></g></svg>